# xmcd
#
# Track frame offsets:
#	183
#	11720
#	20758
#	30705
#	41003
#	52400
#	65545
#	75705
#	87050
#	98603
#	108295
#	118553
#	131163
#	141833
#	151140
#	162978
#	174370
#	182045
#	194303
#	215683
#
# Disc length: 2997 seconds
#
# Revision: 1
# Processed by: cddbd v1.5.1PL0 Copyright (c) Steve Scherf et al.
# Submitted via: audiograbber 1.82.02
#
DISCID=140bb314
DTITLE=Freddie Bell And The Bell Boys - Rock 'n' Roll... All Flavors
DYEAR=1958
DGENRE=Rock and Roll
TTITLE0=Take The First Train Out Of The Town
TTITLE1=Giddy Up A Ding Dong
TTITLE2=Rompin' And Stompin'
TTITLE3=Stay Loose Mother Goose
TTITLE4=I Said It And I'm Glad
TTITLE5=Voo Doo
TTITLE6=Teach You To Rock
TTITLE7=Hey There You
TTITLE8=All Right, Okay, You Win
TTITLE9=Big Bad Wolf
TTITLE10=Hound Dog
TTITLE11=The Hucklebuck
TTITLE12=We're Gonna Teach You To Rock
TTITLE13=Giddy Up A Ding Dong
TTITLE14=Hound Dog
TTITLE15=Move Me Baby
TTITLE16=Old Town Hall
TTITLE17=5-10-15
TTITLE18=Rockin' The Polonaise
TTITLE19=You're Gonna Be Sorry
EXTD=
EXTT0=
EXTT1=
EXTT2=
EXTT3=
EXTT4=
EXTT5=
EXTT6=
EXTT7=
EXTT8=
EXTT9=
EXTT10=
EXTT11=
EXTT12=
EXTT13=
EXTT14=
EXTT15=
EXTT16=
EXTT17=
EXTT18=
EXTT19=
PLAYORDER=
